<svg width="159" height="50" viewBox="0 0 159 50" fill="none" xmlns="http://www.w3.org/2000/svg">
<g clip-path="url(#clip0_34_1670)">
<path d="M45.5802 35.4363C45.3308 34.8269 45.0969 34.1863 44.8475 33.6394L43.694 31.03L43.6472 30.9831C40.2178 23.4831 36.5546 15.8581 32.6731 8.35813L32.5172 8.04563C32.1275 7.31125 31.7378 6.49875 31.3325 5.74875C30.8337 4.85813 30.3505 3.905 29.5555 2.99875C28.7805 2.05052 27.8053 1.28655 26.7 0.761964C25.5948 0.237381 24.3872 -0.034729 23.1643 -0.034729C21.9414 -0.034729 20.7338 0.237381 19.6286 0.761964C18.5233 1.28655 17.548 2.05052 16.7731 2.99875C16.0405 3.905 15.4949 4.85813 14.9961 5.74875C14.6064 6.56125 14.2166 7.35813 13.8114 8.0925L13.6555 8.405C9.83636 15.905 6.11077 23.53 2.68136 31.03L2.58783 31.1238C2.24489 31.9363 1.83959 32.78 1.44989 33.6863C1.20047 34.2331 0.951063 34.8269 0.701651 35.4831C0.0282899 37.2015 -0.186735 39.0662 0.0777663 40.8933C0.342268 42.7203 1.07717 44.4468 2.21004 45.9025C3.34291 47.3582 4.83465 48.4929 6.53824 49.1948C8.24183 49.8966 10.0985 50.1414 11.9252 49.905C13.6765 49.6739 15.3628 49.0892 16.8822 48.1863C18.9087 47.0456 20.8572 45.3894 23.0396 42.9988C25.2219 45.3894 27.2172 47.0456 29.1969 48.2019C31.1007 49.322 33.2567 49.9402 35.4634 49.9988C38.0189 50.0094 40.4919 49.0929 42.4259 47.4186C44.3598 45.7443 45.6242 43.4252 45.9855 40.8894C46.403 39.0672 46.2617 37.161 45.5802 35.4206V35.4363ZM23.1955 38.03C20.5143 34.5925 18.7684 31.4363 18.1761 28.7331C17.9306 27.7315 17.8777 26.6921 18.0202 25.6706C18.1293 24.8738 18.4255 24.1706 18.8308 23.5769C19.7661 22.2175 21.4028 21.3738 23.1955 21.3738C24.0468 21.3477 24.8913 21.5339 25.6531 21.9157C26.4149 22.2975 27.0702 22.8629 27.5602 23.5613C27.9655 24.1863 28.2617 24.8738 28.3552 25.6706C28.5111 26.5769 28.4487 27.6238 28.1993 28.7331C27.6069 31.3894 25.8611 34.5769 23.1955 38.03ZM43.0549 40.3425C42.8778 41.6299 42.3672 42.8483 41.5741 43.8764C40.7809 44.9044 39.7328 45.7062 38.5343 46.2019C37.3496 46.7019 36.0402 46.8425 34.7619 46.7019C33.5149 46.5456 32.2678 46.1394 30.9896 45.3894C28.8673 44.0745 26.9589 42.4409 25.3311 40.5456C28.6046 36.4831 30.5843 32.78 31.3325 29.4831C31.6911 27.9206 31.7378 26.5144 31.5819 25.2175C31.3873 23.9883 30.93 22.8157 30.2414 21.78C29.4551 20.657 28.4056 19.7448 27.1852 19.1236C25.9647 18.5024 24.6107 18.1912 23.2422 18.2175C20.3584 18.2175 17.7864 19.5613 16.2275 21.7644C15.5258 22.7974 15.0723 23.9794 14.9025 25.2175C14.6999 26.53 14.7466 27.9831 15.1519 29.4831C15.9002 32.78 17.9266 36.53 21.1534 40.5769C19.5532 42.5084 17.6404 44.1564 15.4949 45.4519C14.2011 46.2019 12.9696 46.5925 11.7225 46.7488C9.78318 46.9978 7.82415 46.4694 6.27127 45.2786C4.71838 44.0878 3.69717 42.3308 3.42959 40.3894C3.27371 39.1394 3.38283 37.8894 3.88165 36.4831C4.03753 35.9831 4.27136 35.4831 4.52077 34.8894C4.86371 34.0769 5.269 33.2331 5.65871 32.3894L5.72106 32.28C9.08812 24.8269 12.7669 17.2175 16.5861 9.76438L16.7419 9.45188C17.1316 8.70188 17.5214 7.905 17.9266 7.155C18.3319 6.35813 18.7684 5.5925 19.3296 4.9675C19.8153 4.38629 20.4223 3.91887 21.1077 3.59815C21.7931 3.27744 22.5404 3.11124 23.2968 3.11124C24.0532 3.11124 24.8004 3.27744 25.4859 3.59815C26.1713 3.91887 26.7783 4.38629 27.264 4.9675C27.8096 5.5925 28.2616 6.35813 28.6669 7.155C29.0566 7.905 29.4464 8.7175 29.8516 9.45188L30.0075 9.76438C33.8111 17.2175 37.4899 24.8269 40.9193 32.28L40.9661 32.3269C41.3714 33.1394 41.7143 34.0456 42.104 34.8269C42.3534 35.4363 42.6028 35.9206 42.7587 36.4363C43.0549 37.8425 43.2108 39.0925 43.0549 40.3425ZM64.7537 37.6863C63.5791 37.7035 62.4156 37.4554 61.3497 36.9604C60.2838 36.4654 59.3427 35.7362 58.5963 34.8269C56.9191 32.8893 56.029 30.3911 56.1022 27.8269C56.0766 25.2069 56.9954 22.6657 58.6899 20.6706C59.4737 19.7497 60.4493 19.0122 61.5481 18.5101C62.647 18.008 63.8423 17.7534 65.0499 17.7644C66.1861 17.7332 67.3117 17.9922 68.3206 18.517C69.3296 19.0418 70.1888 19.8152 70.8175 20.7644L70.9734 18.3113H75.5252V37.1863H70.9578L70.8019 34.4363C70.1537 35.4498 69.2578 36.2804 68.1992 36.8492C67.1407 37.418 65.9546 37.7062 64.7537 37.6863ZM65.9384 33.1863C66.8425 33.1863 67.6375 32.9363 68.3858 32.4831C69.0716 31.9831 69.6328 31.3269 70.0693 30.53C70.459 29.7331 70.6616 28.78 70.6616 27.7175C70.7224 26.7947 70.5432 25.8719 70.1415 25.0393C69.7399 24.2067 69.1295 23.4928 68.3702 22.9675C67.6405 22.5118 66.7981 22.2703 65.9384 22.2703C65.0787 22.2703 64.2363 22.5118 63.5066 22.9675C62.8208 23.4675 62.2596 24.1238 61.8231 24.9206C61.4109 25.7994 61.2081 26.7623 61.2308 27.7331C61.17 28.6559 61.3492 29.5788 61.7509 30.4114C62.1525 31.244 62.7629 31.9578 63.5222 32.4831C64.2549 32.9363 65.0499 33.1863 65.9384 33.1863ZM83.3193 13.2175C83.3193 13.7644 83.2258 14.2644 82.9763 14.6706C82.7269 15.0613 82.384 15.4206 81.9319 15.6706C81.4799 15.9206 80.9966 16.0144 80.4978 16.0144C79.999 16.0144 79.5002 15.9206 79.0481 15.6706C78.6206 15.4321 78.261 15.0878 78.0037 14.6706C77.7623 14.2255 77.6439 13.7239 77.6608 13.2175C77.6608 12.655 77.7699 12.155 78.0037 11.7644C78.2531 11.2956 78.6116 11.0144 79.0481 10.7644C79.5002 10.5144 79.9834 10.405 80.4978 10.405C80.994 10.3935 81.4847 10.5113 81.9218 10.7469C82.359 10.9824 82.7277 11.3276 82.9919 11.7488C83.2188 12.2043 83.3312 12.7085 83.3193 13.2175ZM78.0193 37.1238V18.28H82.9763V37.155H78.0037L78.0193 37.1238ZM96.2263 23.2175V23.28C95.9925 23.1706 95.6808 23.1238 95.4469 23.0769C95.1352 23.0144 94.8858 23.0144 94.5896 23.0144C93.2022 23.0144 92.1578 23.4206 91.4719 24.2644C90.7237 25.1238 90.3808 26.3269 90.3808 27.8738V37.1394H85.4081V18.2644H89.9755L90.1313 21.1238C90.6302 20.1238 91.2225 19.3738 92.0643 18.8113C92.9016 18.2647 93.8873 17.9918 94.8858 18.03C95.2443 18.03 95.5872 18.0613 95.8834 18.1238C96.0393 18.1706 96.1328 18.1706 96.2263 18.2175V23.2175ZM98.2216 37.1238V10.53H103.179V20.6863C103.88 19.78 104.675 19.0769 105.673 18.53C107.252 17.7538 109.046 17.5336 110.766 17.905C112.486 18.2764 114.03 19.2176 115.15 20.5769C116.831 22.5184 117.722 25.023 117.645 27.5925C117.67 30.2125 116.751 32.7537 115.057 34.7488C114.273 35.6697 113.297 36.4071 112.199 36.9093C111.1 37.4114 109.905 37.6659 108.697 37.655C107.561 37.6862 106.435 37.4272 105.426 36.9024C104.417 36.3776 103.558 35.6042 102.929 34.655L102.773 37.1081L98.2216 37.155V37.1238ZM107.808 33.1863C108.697 33.1863 109.492 32.9363 110.24 32.4831C110.926 31.9831 111.487 31.3269 111.924 30.53C112.329 29.7331 112.516 28.78 112.516 27.7175C112.516 26.6706 112.329 25.7175 111.924 24.9206C111.514 24.1522 110.939 23.485 110.24 22.9675C109.511 22.5118 108.668 22.2703 107.808 22.2703C106.949 22.2703 106.106 22.5118 105.377 22.9675C104.675 23.4675 104.13 24.1238 103.678 24.9206C103.265 25.7994 103.063 26.7623 103.085 27.7331C103.024 28.6559 103.204 29.5788 103.605 30.4114C104.007 31.244 104.617 31.9578 105.377 32.4831C106.109 32.9363 106.904 33.1863 107.808 33.1863ZM119.515 37.1394V18.2644H124.083L124.238 20.7175C124.812 19.7772 125.627 19.0076 126.597 18.4884C127.567 17.9692 128.658 17.7193 129.757 17.7644C131.013 17.7426 132.248 18.0927 133.307 18.7708C134.367 19.4489 135.203 20.425 135.711 21.5769C136.257 22.7644 136.553 24.2331 136.553 25.8738V37.1863H131.58V26.53C131.58 25.2175 131.284 24.1863 130.692 23.4206C130.1 22.6706 129.289 22.2644 128.26 22.2644C127.512 22.2644 126.857 22.4206 126.28 22.7644C125.735 23.1238 125.283 23.5769 124.94 24.2175C124.593 24.8651 124.421 25.5922 124.441 26.3269V37.1394H119.515ZM139.032 37.1394V10.5144H144.004V20.6706C144.678 19.7593 145.554 19.0179 146.563 18.5053C147.573 17.9927 148.687 17.723 149.819 17.7175C150.993 17.7003 152.157 17.9484 153.223 18.4434C154.289 18.9384 155.23 19.6676 155.976 20.5769C157.645 22.5183 158.529 25.0152 158.455 27.5769C158.482 30.1971 157.563 32.7388 155.867 34.7331C155.083 35.654 154.107 36.3915 153.009 36.8936C151.91 37.3958 150.715 37.6503 149.507 37.6394C148.371 37.6706 147.245 37.4116 146.236 36.8868C145.227 36.362 144.368 35.5886 143.739 34.6394L143.599 37.0925L139.032 37.1394ZM148.665 33.1863C149.569 33.1863 150.364 32.9363 151.097 32.4831C151.798 31.9831 152.344 31.3269 152.796 30.53C153.186 29.7331 153.388 28.78 153.388 27.7175C153.449 26.7947 153.27 25.8719 152.868 25.0393C152.467 24.2067 151.856 23.4928 151.097 22.9675C150.367 22.5118 149.525 22.2703 148.665 22.2703C147.805 22.2703 146.963 22.5118 146.233 22.9675C145.548 23.4675 144.986 24.1238 144.55 24.9206C144.115 25.7916 143.911 26.7602 143.958 27.7331C143.897 28.6559 144.076 29.5788 144.478 30.4114C144.879 31.244 145.49 31.9578 146.249 32.4831C146.982 32.9363 147.73 33.1863 148.665 33.1863Z" fill="#FF385C"/>
</g>
<defs>
<clipPath id="clip0_34_1670">
<rect width="159" height="50" fill="white"/>
</clipPath>
</defs>
</svg>
