<svg aria-hidden="true" style="position: absolute; width: 0; height: 0; overflow: hidden;" version="1.1" xmlns="http://www.w3.org/2000/svg" xmlns:xlink="http://www.w3.org/1999/xlink">
<defs>
<symbol id="icon-facebook" viewBox="0 0 32 32">
<path stroke-linejoin="round" stroke-linecap="round" stroke-miterlimit="4" stroke-width="2.9091" d="M24 1.455h-4.364c-1.929 0-3.779 0.766-5.143 2.13s-2.13 3.214-2.13 5.143v4.364h-4.364v5.818h4.364v11.636h5.818v-11.636h4.364l1.455-5.818h-5.818v-4.364c0-0.386 0.153-0.756 0.426-1.029s0.643-0.426 1.029-0.426h4.364v-5.818z"></path>
</symbol>
<symbol id="icon-instargram" viewBox="0 0 32 32">
<path stroke-linejoin="round" stroke-linecap="round" stroke-miterlimit="4" stroke-width="2.6667" d="M22.667 2.667h-13.333c-3.682 0-6.667 2.985-6.667 6.667v13.333c0 3.682 2.985 6.667 6.667 6.667h13.333c3.682 0 6.667-2.985 6.667-6.667v-13.333c0-3.682-2.985-6.667-6.667-6.667z"></path>
<path stroke-linejoin="round" stroke-linecap="round" stroke-miterlimit="4" stroke-width="2.6667" d="M21.333 15.16c0.165 1.11-0.025 2.243-0.542 3.239s-1.334 1.803-2.336 2.308c-1.002 0.504-2.137 0.68-3.245 0.502s-2.131-0.701-2.924-1.494-1.316-1.816-1.494-2.924c-0.178-1.107-0.003-2.243 0.502-3.245s1.312-1.82 2.308-2.336 2.129-0.706 3.239-0.542c1.132 0.168 2.18 0.695 2.989 1.504s1.337 1.857 1.504 2.989z"></path>
<path stroke-linejoin="round" stroke-linecap="round" stroke-miterlimit="4" stroke-width="2.6667" d="M23.333 8.667h0.013"></path>
</symbol>
<symbol id="icon-Path" viewBox="0 0 32 32">
<path d="M29.767 5.156c-0.589-0.601-1.544-0.601-2.134 0l-18.075 18.425-6.948-7.082c-0.589-0.601-1.544-0.601-2.134 0s-0.589 1.574 0 2.175l8.014 8.17c0.589 0.6 1.545 0.6 2.134 0l19.142-19.513c0.589-0.601 0.589-1.574 0-2.175z"></path>
</symbol>
<symbol id="icon-star-enply" viewBox="0 0 32 32">
<path d="M8.17 19.52l-2.293 9.778c-0.071 0.296-0.050 0.606 0.061 0.89s0.306 0.529 0.56 0.701c0.254 0.173 0.555 0.266 0.864 0.268s0.611-0.088 0.867-0.258l8.38-5.501 8.38 5.501c0.262 0.171 0.571 0.26 0.886 0.253s0.62-0.108 0.874-0.291c0.254-0.182 0.446-0.437 0.548-0.73s0.112-0.61 0.027-0.908l-2.815-9.699 6.981-6.186c0.224-0.198 0.383-0.457 0.459-0.743s0.065-0.589-0.032-0.87-0.275-0.527-0.512-0.709c-0.237-0.182-0.524-0.291-0.824-0.315l-8.774-0.688-3.797-8.276c-0.121-0.266-0.318-0.493-0.567-0.652s-0.539-0.243-0.835-0.243c-0.296 0-0.587 0.085-0.835 0.243s-0.446 0.385-0.567 0.652l-3.797 8.276-8.774 0.687c-0.295 0.023-0.577 0.129-0.812 0.306s-0.414 0.416-0.514 0.69c-0.101 0.274-0.119 0.57-0.053 0.854s0.214 0.543 0.426 0.746l6.485 6.224zM12.561 12.964c0.275-0.021 0.539-0.115 0.764-0.271s0.404-0.369 0.517-0.617l2.769-6.033 2.769 6.033c0.113 0.248 0.291 0.461 0.517 0.617s0.489 0.25 0.764 0.271l6.113 0.477-5.034 4.462c-0.437 0.388-0.611 0.985-0.451 1.543l1.928 6.645-5.75-3.775c-0.252-0.167-0.549-0.256-0.853-0.256s-0.601 0.089-0.853 0.256l-6.008 3.945 1.616-6.889c0.059-0.253 0.051-0.518-0.023-0.767s-0.213-0.476-0.402-0.658l-4.676-4.489 6.295-0.494z"></path>
</symbol>
<symbol id="icon-star-full" viewBox="0 0 32 32">
<path d="M30.699 11.725c-0.097-0.281-0.275-0.527-0.512-0.709s-0.524-0.292-0.824-0.315l-8.774-0.687-3.797-8.276c-0.121-0.267-0.318-0.493-0.566-0.652s-0.539-0.244-0.835-0.244c-0.296-0-0.587 0.084-0.836 0.243s-0.446 0.385-0.567 0.651l-3.797 8.277-8.774 0.687c-0.295 0.023-0.577 0.129-0.812 0.306s-0.414 0.416-0.514 0.69c-0.101 0.274-0.119 0.57-0.053 0.854s0.214 0.543 0.426 0.746l6.484 6.224-2.293 9.778c-0.070 0.296-0.047 0.606 0.064 0.889s0.307 0.527 0.56 0.7c0.254 0.173 0.555 0.266 0.863 0.268s0.611-0.087 0.867-0.256l8.38-5.501 8.38 5.501c0.262 0.171 0.571 0.26 0.886 0.253s0.619-0.108 0.874-0.291c0.254-0.183 0.446-0.437 0.548-0.73s0.112-0.61 0.027-0.908l-2.815-9.699 6.981-6.186c0.457-0.406 0.625-1.040 0.428-1.614z"></path>
</symbol>
<symbol id="icon-tviter" viewBox="0 0 32 32">
<path stroke-linejoin="round" stroke-linecap="round" stroke-miterlimit="4" stroke-width="2.6667" d="M30.667 4.013c-1.277 0.901-2.691 1.589-4.187 2.040-0.803-0.923-1.87-1.578-3.057-1.875s-2.437-0.222-3.58 0.214c-1.143 0.436-2.125 1.213-2.812 2.226s-1.047 2.211-1.031 3.435v1.333c-2.343 0.061-4.665-0.459-6.759-1.513s-3.894-2.609-5.241-4.527c0 0-5.333 12 6.667 17.333-2.746 1.864-6.017 2.799-9.333 2.667 12 6.667 26.667 0 26.667-15.333-0.001-0.371-0.037-0.742-0.107-1.107 1.361-1.342 2.321-3.036 2.773-4.893v0z"></path>
</symbol>
<symbol id="icon-click" viewBox="0 0 21 32">
<path d="M19.042 18.067l-17.21-17.21c-0.202-0.219-0.471-0.319-0.756-0.319-0.134 0-0.286 0.034-0.403 0.084-0.403 0.168-0.672 0.555-0.672 0.992v25.277c0 0.437 0.269 0.824 0.672 0.992 0.118 0.050 0.269 0.084 0.403 0.084 0.286 0 0.555-0.118 0.756-0.319l5.244-5.244 3.21 7.597c0.235 0.538 0.857 0.807 1.412 0.571l2.975-1.261c0.538-0.235 0.807-0.857 0.571-1.412l-3.378-8h6.42c0.437 0 0.824-0.269 0.992-0.672 0.168-0.387 0.084-0.857-0.235-1.16z"></path>
</symbol>
<symbol id="icon-hz" viewBox="0 0 41 32">
<path d="M21.673 12.898l2.674 1.245 3.98-1.184v-2.775c0-4.714-3.98-8.49-8.735-8.49-4.735 0-8.735 3.755-8.735 8.429v12.653c0 1.163-0.939 2.082-2.082 2.082s-2.082-0.918-2.082-2.082v-5.347h-6.694c0 5.367 0 5.429 0 5.429 0 4.837 3.918 8.755 8.755 8.755 4.796 0 8.755-3.857 8.755-8.633v-12.49c0-1.143 0.939-2.082 2.082-2.082s2.082 0.939 2.082 2.082v2.408zM32.49 17.429v5.612c0 1.143-0.939 2.061-2.082 2.061s-2.082-0.918-2.082-2.061v-5.51l-3.98 1.184-2.674-1.245v5.469c0 4.796 3.939 8.674 8.755 8.674 4.837 0 8.755-3.918 8.755-8.755 0 0 0-0.061 0-5.429h-6.694z"></path>
</symbol>
<symbol id="icon-love" viewBox="0 0 34 32">
<path d="M17.067 30.172c0.305 0 0.61-0.114 0.838-0.343l11.867-11.428c0.171-0.171 4.362-4 4.362-8.571 0-5.581-3.41-8.914-9.105-8.914-3.333 0-6.457 2.629-7.962 4.114-1.505-1.486-4.629-4.114-7.962-4.114-5.695 0-9.105 3.333-9.105 8.914 0 4.571 4.191 8.4 4.343 8.533l11.886 11.467c0.229 0.229 0.533 0.343 0.838 0.343z"></path>
</symbol>
<symbol id="icon-time" viewBox="0 0 26 32">
<path d="M23.664 2.689h1.614c0.302 0 0.538-0.235 0.538-0.538v-1.076c0-0.303-0.235-0.538-0.538-0.538h-24.74c-0.303 0-0.538 0.235-0.538 0.538v1.076c0 0.303 0.235 0.538 0.538 0.538h1.613c0 6.219 2.975 10.723 6.269 12.908-3.294 2.185-6.269 6.689-6.269 12.908h-1.613c-0.303 0-0.538 0.235-0.538 0.538v1.076c0 0.302 0.235 0.538 0.538 0.538h24.74c0.302 0 0.538-0.235 0.538-0.538v-1.076c0-0.302-0.235-0.538-0.538-0.538h-1.614c0-6.219-2.975-10.723-6.269-12.908 3.294-2.185 6.269-6.689 6.269-12.908zM21.513 2.689c0 2.454-0.555 4.622-1.429 6.454h-14.353c-0.874-1.832-1.429-4-1.429-6.454h17.21zM20.555 23.126h-15.294c1.244-3.244 3.479-5.546 5.714-6.454h3.866c2.235 0.908 4.471 3.21 5.714 6.454z"></path>
</symbol>
</defs>
</svg>
